<mxfile host="app.diagrams.net" modified="2021-05-19T05:20:31.419Z" agent="5.0 (Windows NT 10.0; Win64; x64) AppleWebKit/537.36 (KHTML, like Gecko) Chrome/90.0.4430.212 Safari/537.36" etag="D3JtGTUhEBOZahLSc9UY" version="14.6.13" type="github">
  <diagram id="bk0U1804CkLuLiwSPK4v" name="Page-1">
    <mxGraphModel dx="1066" dy="503" grid="1" gridSize="10" guides="1" tooltips="1" connect="1" arrows="1" fold="1" page="1" pageScale="1" pageWidth="827" pageHeight="1169" math="0" shadow="0">
      <root>
        <mxCell id="0" />
        <mxCell id="1" parent="0" />
        <mxCell id="eypvEDtw8LCNltwt5FSm-7" style="edgeStyle=orthogonalEdgeStyle;rounded=0;orthogonalLoop=1;jettySize=auto;html=1;entryX=0.5;entryY=0;entryDx=0;entryDy=0;" parent="1" source="eypvEDtw8LCNltwt5FSm-1" target="eypvEDtw8LCNltwt5FSm-2" edge="1">
          <mxGeometry relative="1" as="geometry" />
        </mxCell>
        <mxCell id="eypvEDtw8LCNltwt5FSm-1" value="Liga o Arduíno" style="ellipse;whiteSpace=wrap;html=1;" parent="1" vertex="1">
          <mxGeometry x="340" y="220" width="120" height="80" as="geometry" />
        </mxCell>
        <mxCell id="eypvEDtw8LCNltwt5FSm-8" value="um toque" style="edgeStyle=orthogonalEdgeStyle;rounded=0;orthogonalLoop=1;jettySize=auto;html=1;entryX=0.5;entryY=0;entryDx=0;entryDy=0;" parent="1" source="eypvEDtw8LCNltwt5FSm-2" target="eypvEDtw8LCNltwt5FSm-3" edge="1">
          <mxGeometry relative="1" as="geometry" />
        </mxCell>
        <mxCell id="eypvEDtw8LCNltwt5FSm-2" value="lê o botao" style="rounded=1;whiteSpace=wrap;html=1;" parent="1" vertex="1">
          <mxGeometry x="340" y="380" width="120" height="60" as="geometry" />
        </mxCell>
        <mxCell id="j6kIJY48mwB46VG56vxD-1" value="um toque" style="edgeStyle=orthogonalEdgeStyle;rounded=0;orthogonalLoop=1;jettySize=auto;html=1;" edge="1" parent="1">
          <mxGeometry relative="1" as="geometry">
            <mxPoint x="280" y="565" as="sourcePoint" />
            <mxPoint x="510" y="565" as="targetPoint" />
            <Array as="points">
              <mxPoint x="280" y="605" />
              <mxPoint x="510" y="605" />
            </Array>
          </mxGeometry>
        </mxCell>
        <mxCell id="eypvEDtw8LCNltwt5FSm-3" value="ligar luz" style="rounded=1;whiteSpace=wrap;html=1;" parent="1" vertex="1">
          <mxGeometry x="220" y="500" width="120" height="60" as="geometry" />
        </mxCell>
        <mxCell id="j6kIJY48mwB46VG56vxD-3" value="um toque" style="edgeStyle=orthogonalEdgeStyle;rounded=0;orthogonalLoop=1;jettySize=auto;html=1;" edge="1" parent="1" source="eypvEDtw8LCNltwt5FSm-4" target="eypvEDtw8LCNltwt5FSm-3">
          <mxGeometry relative="1" as="geometry" />
        </mxCell>
        <mxCell id="eypvEDtw8LCNltwt5FSm-4" value="Desligar luz" style="rounded=1;whiteSpace=wrap;html=1;" parent="1" vertex="1">
          <mxGeometry x="450" y="500" width="120" height="60" as="geometry" />
        </mxCell>
      </root>
    </mxGraphModel>
  </diagram>
</mxfile>
